<?xml version="1.0" encoding="utf-8"?>
<!-- Generator: Adobe Illustrator 19.1.0, SVG Export Plug-In . SVG Version: 6.00 Build 0)  -->
<svg version="1.1" id="Layer_1" xmlns="http://www.w3.org/2000/svg" xmlns:xlink="http://www.w3.org/1999/xlink" x="0px" y="0px"
	 viewBox="-272 399 30 30" style="enable-background:new -272 399 30 30;" xml:space="preserve">
<style type="text/css">
	.st0{fill:#FFFFFF;}
</style>
<g>
	<circle class="st0" cx="-257" cy="414.3" r="9.9"/>
	<path d="M-257.2,403.2c3.1,0,5.7,1.1,7.9,3.2c1,1,1.8,2.2,2.4,3.6c0.5,1.3,0.8,2.7,0.8,4.2c0,1.5-0.3,2.9-0.8,4.2
		c-0.5,1.3-1.3,2.5-2.4,3.5c-1.1,1.1-2.3,1.9-3.7,2.4c-1.4,0.6-2.8,0.8-4.2,0.8s-2.9-0.3-4.2-0.8c-1.3-0.6-2.5-1.4-3.6-2.4
		s-1.9-2.2-2.4-3.6s-0.8-2.7-0.8-4.2c0-1.5,0.3-2.9,0.8-4.2c0.6-1.3,1.4-2.6,2.4-3.6C-262.8,404.3-260.2,403.2-257.2,403.2z
		 M-257.1,405.2c-2.5,0-4.6,0.9-6.4,2.6c-0.9,0.9-1.5,1.9-2,3c-0.5,1.1-0.7,2.2-0.7,3.4c0,1.2,0.2,2.3,0.7,3.4
		c0.5,1.1,1.1,2.1,2,2.9c0.9,0.9,1.8,1.5,2.9,2c1.1,0.5,2.2,0.7,3.4,0.7c1.2,0,2.3-0.2,3.4-0.7c1.1-0.5,2.1-1.1,3-2
		c1.7-1.7,2.6-3.8,2.6-6.3c0-1.2-0.2-2.4-0.7-3.5c-0.4-1.1-1.1-2.1-1.9-2.9C-252.5,406.1-254.6,405.2-257.1,405.2z M-257.3,412.4
		l-1.5,0.8c-0.2-0.3-0.4-0.6-0.6-0.7c-0.2-0.1-0.4-0.2-0.6-0.2c-1,0-1.5,0.6-1.5,1.9c0,0.6,0.1,1.1,0.4,1.4c0.2,0.4,0.6,0.5,1.1,0.5
		c0.6,0,1.1-0.3,1.4-0.9l1.4,0.7c-0.3,0.5-0.7,1-1.2,1.3c-0.5,0.3-1.1,0.5-1.7,0.5c-1,0-1.8-0.3-2.4-0.9c-0.6-0.6-0.9-1.4-0.9-2.5
		c0-1.1,0.3-1.9,0.9-2.5c0.6-0.6,1.4-0.9,2.3-0.9C-258.8,410.8-257.8,411.4-257.3,412.4z M-250.9,412.4l-1.5,0.8
		c-0.2-0.3-0.4-0.6-0.6-0.7c-0.2-0.1-0.5-0.2-0.7-0.2c-1,0-1.5,0.6-1.5,1.9c0,0.6,0.1,1.1,0.4,1.4c0.2,0.4,0.6,0.5,1.1,0.5
		c0.6,0,1.1-0.3,1.4-0.9l1.4,0.7c-0.3,0.5-0.7,1-1.2,1.3c-0.5,0.3-1.1,0.5-1.7,0.5c-1,0-1.8-0.3-2.4-0.9c-0.6-0.6-0.9-1.4-0.9-2.5
		c0-1.1,0.3-1.9,0.9-2.5c0.6-0.6,1.4-0.9,2.3-0.9C-252.4,410.8-251.5,411.4-250.9,412.4z"/>
</g>
</svg>
